<svg width="28" height="28" viewBox="0 0 28 28" fill="none" xmlns="http://www.w3.org/2000/svg">
<g clip-path="url(#clip0_1921_65)">
<path d="M18.171 6.82899C18.5174 7.17693 18.778 7.60081 18.932 8.06699L19.43 9.59699C19.4719 9.71467 19.5491 9.81651 19.6512 9.88852C19.7532 9.96054 19.8751 9.9992 20 9.9992C20.1249 9.9992 20.2468 9.96054 20.3488 9.88852C20.4509 9.81651 20.5281 9.71467 20.57 9.59699L21.068 8.06699C21.2227 7.60175 21.4839 7.17904 21.8308 6.83253C22.1776 6.48601 22.6006 6.22524 23.066 6.07099L24.596 5.57399C24.7137 5.53212 24.8155 5.45486 24.8875 5.3528C24.9595 5.25074 24.9982 5.1289 24.9982 5.00399C24.9982 4.87908 24.9595 4.75724 24.8875 4.65518C24.8155 4.55312 24.7137 4.47586 24.596 4.43399L24.566 4.42599L23.035 3.92899C22.5696 3.77473 22.1466 3.51397 21.7998 3.16745C21.4529 2.82093 21.1917 2.39823 21.037 1.93299L20.54 0.402989C20.4986 0.284853 20.4215 0.182501 20.3194 0.110088C20.2173 0.0376752 20.0952 -0.0012207 19.97 -0.0012207C19.8448 -0.0012207 19.7227 0.0376752 19.6206 0.110088C19.5185 0.182501 19.4414 0.284853 19.4 0.402989L18.902 1.93299L18.889 1.97099C18.7337 2.42463 18.4768 2.83681 18.138 3.17613C17.7992 3.51545 17.3874 3.77295 16.934 3.92899L15.404 4.42599C15.2863 4.46786 15.1845 4.54512 15.1125 4.64718C15.0405 4.74924 15.0018 4.87108 15.0018 4.99599C15.0018 5.1209 15.0405 5.24274 15.1125 5.3448C15.1845 5.44686 15.2863 5.52412 15.404 5.56599L16.934 6.06299C17.401 6.21899 17.824 6.48099 18.171 6.82899ZM26.821 10.358L27.739 10.656L27.758 10.66C27.8291 10.6846 27.8907 10.7308 27.9343 10.7921C27.9779 10.8534 28.0013 10.9268 28.0013 11.002C28.0013 11.0772 27.9779 11.1506 27.9343 11.2119C27.8907 11.2731 27.8291 11.3193 27.758 11.344L26.839 11.643C26.5603 11.7363 26.3071 11.8929 26.0993 12.1006C25.8914 12.3083 25.7345 12.5614 25.641 12.84L25.342 13.758C25.3169 13.8286 25.2705 13.8897 25.2093 13.9329C25.1481 13.9761 25.0749 13.9993 25 13.9993C24.9251 13.9993 24.8519 13.9761 24.7907 13.9329C24.7295 13.8897 24.6831 13.8286 24.658 13.758L24.359 12.84C24.2668 12.5601 24.1105 12.3057 23.9025 12.097C23.6945 11.8883 23.4406 11.7311 23.161 11.638L22.242 11.34C22.1709 11.3153 22.1093 11.2691 22.0657 11.2079C22.0221 11.1466 21.9987 11.0732 21.9987 10.998C21.9987 10.9228 22.0221 10.8494 22.0657 10.7881C22.1093 10.7268 22.1709 10.6806 22.242 10.656L23.161 10.357C23.4363 10.2613 23.6859 10.1036 23.8906 9.89607C24.0952 9.68851 24.2493 9.43665 24.341 9.15999L24.64 8.24199C24.6651 8.17138 24.7115 8.11028 24.7727 8.06707C24.8339 8.02386 24.9071 8.00067 24.982 8.00067C25.0569 8.00067 25.1301 8.02386 25.1913 8.06707C25.2525 8.11028 25.2989 8.17138 25.324 8.24199L25.622 9.15999C25.7149 9.43905 25.8717 9.69256 26.0799 9.90036C26.288 10.1082 26.5418 10.2655 26.821 10.358ZM15.089 3.49899L16.185 3.13899C16.058 3.04856 15.9059 2.99998 15.75 2.99999H12.25C12.0511 2.99999 11.8603 3.07901 11.7197 3.21966C11.579 3.36031 11.5 3.55108 11.5 3.74999C11.5 3.9489 11.579 4.13967 11.7197 4.28032C11.8603 4.42097 12.0511 4.49999 12.25 4.49999H14.086C14.1368 4.35374 14.2085 4.21563 14.299 4.08999C14.4921 3.81359 14.7691 3.60572 15.089 3.49899ZM11.5 24.25C11.5 24.0511 11.579 23.8603 11.7197 23.7197C11.8603 23.579 12.0511 23.5 12.25 23.5H15.75C15.9489 23.5 16.1397 23.579 16.2803 23.7197C16.421 23.8603 16.5 24.0511 16.5 24.25C16.5 24.4489 16.421 24.6397 16.2803 24.7803C16.1397 24.921 15.9489 25 15.75 25H12.25C12.0511 25 11.8603 24.921 11.7197 24.7803C11.579 24.6397 11.5 24.4489 11.5 24.25ZM3 15.75C3 15.9489 3.07902 16.1397 3.21967 16.2803C3.36032 16.421 3.55109 16.5 3.75 16.5C3.94891 16.5 4.13968 16.421 4.28033 16.2803C4.42098 16.1397 4.5 15.9489 4.5 15.75V12.25C4.5 12.0511 4.42098 11.8603 4.28033 11.7197C4.13968 11.579 3.94891 11.5 3.75 11.5C3.55109 11.5 3.36032 11.579 3.21967 11.7197C3.07902 11.8603 3 12.0511 3 12.25V15.75ZM20 24.25C20 24.664 20.336 25 20.75 25H21.25C22.2446 25 23.1984 24.6049 23.9017 23.9016C24.6049 23.1984 25 22.2446 25 21.25V20.75C25 20.5511 24.921 20.3603 24.7803 20.2197C24.6397 20.079 24.4489 20 24.25 20C24.0511 20 23.8603 20.079 23.7197 20.2197C23.579 20.3603 23.5 20.5511 23.5 20.75V21.25C23.5 21.8467 23.2629 22.419 22.841 22.841C22.419 23.2629 21.8467 23.5 21.25 23.5H20.75C20.5511 23.5 20.3603 23.579 20.2197 23.7197C20.079 23.8603 20 24.0511 20 24.25ZM7.25 2.99999C7.44891 2.99999 7.63968 3.07901 7.78033 3.21966C7.92098 3.36031 8 3.55108 8 3.74999C8 3.9489 7.92098 4.13967 7.78033 4.28032C7.63968 4.42097 7.44891 4.49999 7.25 4.49999H6.75C6.15326 4.49999 5.58097 4.73704 5.15901 5.159C4.73705 5.58096 4.5 6.15325 4.5 6.74999V7.24999C4.5 7.4489 4.42098 7.63967 4.28033 7.78032C4.13968 7.92097 3.94891 7.99999 3.75 7.99999C3.55109 7.99999 3.36032 7.92097 3.21967 7.78032C3.07902 7.63967 3 7.4489 3 7.24999V6.74999C3 5.75543 3.39509 4.8016 4.09835 4.09834C4.80161 3.39508 5.75544 2.99999 6.75 2.99999H7.25ZM8 24.25C8 24.4489 7.92098 24.6397 7.78033 24.7803C7.63968 24.921 7.44891 25 7.25 25H6.75C5.75544 25 4.80161 24.6049 4.09835 23.9016C3.39509 23.1984 3 22.2446 3 21.25V20.75C3 20.5511 3.07902 20.3603 3.21967 20.2197C3.36032 20.079 3.55109 20 3.75 20C3.94891 20 4.13968 20.079 4.28033 20.2197C4.42098 20.3603 4.5 20.5511 4.5 20.75V21.25C4.5 21.8467 4.73705 22.419 5.15901 22.841C5.58097 23.2629 6.15326 23.5 6.75 23.5H7.25C7.44891 23.5 7.63968 23.579 7.78033 23.7197C7.92098 23.8603 8 24.0511 8 24.25Z" fill="white"/>
</g>
<defs>
<clipPath id="clip0_1921_65">
<rect width="28" height="28" fill="white"/>
</clipPath>
</defs>
</svg>
